<svg xmlns="http://www.w3.org/2000/svg" xmlns:xlink="http://www.w3.org/1999/xlink" width="137.88" height="141.215" viewBox="0 0 137.88 141.215">
  <defs>
    <clipPath id="clip-path">
      <path id="Rectangle_32" data-name="Rectangle 32" d="M0,141.216V0h137.88V141.216Z" transform="translate(0 0)" fill="none"/>
    </clipPath>
  </defs>
  <g id="Group_48" data-name="Group 48" transform="translate(0.003 -0.001)">
    <path id="Rectangle_32-2" data-name="Rectangle 32" d="M0,141.216V0h137.88V141.216Z" transform="translate(0 0)" fill="none"/>
    <g id="Group_48-2" data-name="Group 48" clip-path="url(#clip-path)">
      <path id="Path_39" data-name="Path 39" d="M5.046,77.34c-1.091,0-1.759-.765-1.933-2.213A291.572,291.572,0,0,1,1.107,36.9,276.38,276.38,0,0,1,2.836,8.55c.045-.391.064-.777.085-1.223.011-.229.022-.465.038-.721A3.955,3.955,0,0,1,2,6.74,1.851,1.851,0,0,1,.134,5.405c-.4-1.056.111-2.127,1.376-2.865A16.541,16.541,0,0,1,9.9,0a13.444,13.444,0,0,1,2.523.241A8.813,8.813,0,0,1,17.27,2.855a9.622,9.622,0,0,1,2.373,5.051c.6,3.671.008,7.325-1.921,11.848-2.371,5.558-6.354,10.209-9.869,14.314l-.017.02c-.628.732-.943,1.1-.875,1.375s.537.464,1.468.831a54.923,54.923,0,0,1,9.989,5.18c4.507,2.964,7.237,6.5,8.346,10.823a14.335,14.335,0,0,1-.09,7.785,18.033,18.033,0,0,1-3.967,6.762c-3.885,4.348-8.961,6.876-13.828,9.093-.783.358-1.588.7-2.366,1.038l-.09.039A3.563,3.563,0,0,1,5.046,77.34Zm.217-37.852c-.008.081-.017.153-.025.218-.016.132-.028.236-.031.341a284.883,284.883,0,0,0,1.56,31.565c.037.386.078.62.329.62a1.088,1.088,0,0,0,.417-.12c3.831-1.739,8.206-3.883,11.655-7.33A12.486,12.486,0,0,0,23.2,56.426c.177-3.362-1.141-6.27-4.148-9.151C15,43.388,9.828,41.316,5.263,39.488Zm4.55-35.38h0a8.665,8.665,0,0,0-1.691.171c-.577.116-.828.274-.884.954-.14,1.68-.325,3.384-.5,5.031-.107.986-.219,2.006-.319,3.01-.58,5.839-.92,11.5-1.039,17.311q.48-.587.957-1.164c3.007-3.652,5.847-7.1,7.648-11.283a17.009,17.009,0,0,0,1.744-8.05c-.181-2.263-.532-4.376-2.821-5.35a7.868,7.868,0,0,0-3.09-.631Z" transform="translate(0 63.877)" fill="#0b0c0b"/>
      <path id="Path_40" data-name="Path 40" d="M45.272,61.3c-1.144-.092-2.309-.138-3.436-.183a47.251,47.251,0,0,1-6.259-.53A58.663,58.663,0,0,1,27.021,58.2a48.815,48.815,0,0,1-8.231-4.952l-.121-.1-.121-.1A6.353,6.353,0,0,0,17,51.686l-.107-.1-.11-.1-.519-.624c-2.465-2.965-5.012-6.027-8.679-7.81A9.033,9.033,0,0,1,5.619,41.6c-.281-.25-.571-.509-.867-.743l-.036-.038L4.585,40.7l-.246-.228A15.943,15.943,0,0,1,.574,33.592a19.052,19.052,0,0,1-.366-7.51A22.693,22.693,0,0,1,6.322,13.457c1.111-1.1,2.342-2.111,3.533-3.091l.034-.028.508-.419a22.35,22.35,0,0,0,3.586-3.664c1.9-2.49,4.671-3.966,8.726-4.647A101.041,101.041,0,0,1,39.6,0c.589,0,1.182.007,1.76.022,8.016.2,13.864,1.509,18.962,4.234a42.872,42.872,0,0,0,10.5,3.474l.028.007a10.622,10.622,0,0,1,7.277,5.4c.866,1.578,1.817,3.142,2.737,4.655.412.677.837,1.377,1.249,2.069a.272.272,0,0,0,.186.341.128.128,0,0,0,.062.168c.143.416.294.837.441,1.244a25.233,25.233,0,0,1,1.38,4.839c.254,1.741.548,3.506.832,5.214v.007c.12.719.244,1.463.363,2.194a26.614,26.614,0,0,1-.5,5.759A9.022,9.022,0,0,1,81.578,43.9,6.544,6.544,0,0,0,79.3,47.1a36.574,36.574,0,0,1-2.2,4.891,17.1,17.1,0,0,1-6.183,4.932,18.361,18.361,0,0,1-7.734,1.585h-.147c-.214-.031-.432-.055-.643-.078-.326-.036-.662-.073-.992-.137l-.049-.009a6.172,6.172,0,0,0-1.149-.147,2.043,2.043,0,0,0-1.363.465,10.766,10.766,0,0,1-4.788,1.937,33.761,33.761,0,0,1-5.417.536c-1.1.049-2.245.1-3.362.22h0ZM24.8,54.682h0a23.471,23.471,0,0,0,6.566,2.765,25.967,25.967,0,0,0,7.977,1.5,41.261,41.261,0,0,0,5.056.288c2.421,0,4.816-.173,6.633-.324h.011c2.28-.191,4.637-.388,6.54-1.914a4.021,4.021,0,0,1,2.616-.884,7.067,7.067,0,0,1,1.15.1,16.938,16.938,0,0,0,2.725.229,14.3,14.3,0,0,0,10.207-4.308A12.878,12.878,0,0,0,77.3,46.429h-.045a1.039,1.039,0,0,0-.907.535,2.4,2.4,0,0,1-.17.211,28.189,28.189,0,0,1-6.226,5.142,11.7,11.7,0,0,1-5.958,1.919,8.23,8.23,0,0,1-1.606-.159,18.57,18.57,0,0,1-2.458-.732c-.238-.083-.481-.168-.72-.248a5.045,5.045,0,0,0-1.591-.283,3.739,3.739,0,0,0-2.767,1.241c-.446.457-.938.884-1.414,1.3-.227.2-.459.4-.684.6A8.517,8.517,0,0,1,48.271,58a11.381,11.381,0,0,1-1.856.15,22.305,22.305,0,0,1-6.1-1.1c-.67-.189-1.346-.4-2-.607a22.622,22.622,0,0,0-6.458-1.354A58.757,58.757,0,0,1,24.8,54.682Zm5.709-1.675a24.591,24.591,0,0,1,7.767,1.3c1.748.582,3.532,1.047,5.045,1.425a12.878,12.878,0,0,0,3.1.414,8.049,8.049,0,0,0,6.464-3.058,7.126,7.126,0,0,1,1.468-1.242,5.6,5.6,0,0,1,3.173-1.073,5.131,5.131,0,0,1,1.2.147,20.122,20.122,0,0,1,2.688.827,6.59,6.59,0,0,0,2.423.467,7.93,7.93,0,0,0,2.944-.607,15.168,15.168,0,0,0,3.587-1.963,35.44,35.44,0,0,0,10.707-13.26,15.808,15.808,0,0,0,1.092-9.766c-.774-4.532-3.22-8.35-5.586-12.043l-.25-.391-.085-.115-.086-.116,0-.008-.218-.327.029.026a6.658,6.658,0,0,0-4.294-3.551,58.359,58.359,0,0,0-6.551-1.64l.038.034a47.06,47.06,0,0,1-5.735-2.453c-4.8-2.485-10.3-3.745-17.32-3.964-.774-.024-1.566-.036-2.354-.036a94.724,94.724,0,0,0-14.277,1.16c-.251.038-.5.075-.754.111a15.909,15.909,0,0,0-5.715,1.582l-.024,0a.628.628,0,0,0-.545.282A5.187,5.187,0,0,0,15.93,7.08a30.651,30.651,0,0,1-6.164,5.978A19.874,19.874,0,0,0,2.69,24.079C.667,31.537,2.882,37.5,9.275,41.8c.772.52,1.54,1,2.282,1.432.528.306,1.065.611,1.584.906A44.225,44.225,0,0,1,22.1,50.268a9.625,9.625,0,0,0,6.959,2.769c.168,0,.34,0,.512-.01C29.882,53.014,30.2,53.007,30.509,53.007Zm-9.567-.631,0,.011.026.008.065.021a1.48,1.48,0,0,0,.439.092.631.631,0,0,0,.24-.046h0a.762.762,0,0,1-.262-.1.634.634,0,0,0-.281-.1.271.271,0,0,0-.067.008c.011-.026,0-.06-.035-.105a.354.354,0,0,0-.177-.087l-.056-.017-.012-.037-.026-.01c-.009-.353-.259-.486-.5-.616a2.177,2.177,0,0,1-.238-.141c-.07.483.268.6.6.707.049.017.1.032.143.049,0,.007,0,.014,0,.02v.013l.037.014.1.312a.075.075,0,0,0-.013.015ZM19.1,50.5a.412.412,0,0,0-.063.064l-.015.017.111.08.132.1c.025.038.049.078.072.117.119.2.242.4.475.4a.578.578,0,0,0,.224-.051l.016.026.012.009,0-.018.006-.034-.03.013-.007,0a1.039,1.039,0,0,0-.7-.533C19.263,50.627,19.185,50.559,19.1,50.5ZM82.982,37.19h0a42.436,42.436,0,0,1-2.8,4.877,4.627,4.627,0,0,0,2.8-4.877Z" transform="translate(26.088)" fill="#0b0c0b"/>
      <path id="Path_41" data-name="Path 41" d="M6.349,43.862C3,43.862.637,41.546.181,37.817a21.58,21.58,0,0,1,4.2-15.96c2.682-3.615,6.03-5.448,9.95-5.448.385,0,.782.018,1.178.053a16.029,16.029,0,0,1,5.74,1.858c.082-1,.163-2,.24-2.973.2-2.473.384-4.807.61-7.189.151-1.6.363-3.217.567-4.783q.1-.73.189-1.458C23.015.663,23.6,0,24.558,0c.069,0,.141,0,.214.011a2.252,2.252,0,0,1,2.056,2.366c-.113,1.2-.26,2.411-.4,3.585-.111.916-.225,1.859-.323,2.789-.378,3.621-.543,7.317-.7,10.89v.006q-.046,1.022-.093,2.044c-.205,4.416-.09,8.9.022,13.234.057,2.228.116,4.533.131,6.8.008,1.294-.589,1.977-1.773,2.03-.068,0-.135,0-.2,0-1.187,0-1.753-.545-1.955-1.88a31.481,31.481,0,0,1-.236-4.8,37.578,37.578,0,0,0-.136-4.021c-.017-.16-.029-.32-.048-.562V32.48c-.011-.139-.024-.306-.041-.514a38.22,38.22,0,0,1-6.309,7.787,15.73,15.73,0,0,1-5.688,3.635A8.59,8.59,0,0,1,6.349,43.862Zm7.9-23.37A6.816,6.816,0,0,0,9.277,22.6,17.062,17.062,0,0,0,4.1,34.869c0,.253-.01.512-.02.763a8.74,8.74,0,0,0,.041,1.67c.252,1.627.988,2.418,2.25,2.418a4.588,4.588,0,0,0,1.414-.262,10.657,10.657,0,0,0,3.6-2.16,31.983,31.983,0,0,0,8.38-11.661c.658-1.485,1.018-2.353.768-2.939s-1.15-.941-2.712-1.5A10.513,10.513,0,0,0,14.246,20.492Z" transform="translate(111.044 66.197)" fill="#0b0c0b"/>
      <path id="Path_42" data-name="Path 42" d="M6.445,31.634a8,8,0,0,1-3.1-.568,5.305,5.305,0,0,1-2.711-2.39,5.719,5.719,0,0,1-.564-3.6A11.054,11.054,0,0,1,3.9,18.41a15.091,15.091,0,0,1,6.678-3.323,19.66,19.66,0,0,1,4.076-.42,27.732,27.732,0,0,1,8.047,1.324,2.953,2.953,0,0,0,.807.163c.459,0,.62-.3.635-1.175.018-1.114.132-2.246.242-3.34.088-.877.179-1.784.221-2.677a4.925,4.925,0,0,0-1.038-3.783,4.58,4.58,0,0,0-3.481-1.158,12.7,12.7,0,0,0-1.31.074,9.64,9.64,0,0,0-2.935.864,2.513,2.513,0,0,1-1.029.225,2.139,2.139,0,0,1-2-1.286c-.46-1.057.051-2.074,1.335-2.654A13.214,13.214,0,0,1,23.417.52c2.937.83,4.642,2.942,5.066,6.276a40.209,40.209,0,0,1-.523,10.877,62.241,62.241,0,0,0-.473,10.9c.054,1.551-.551,2.5-1.659,2.591-.093.008-.184.012-.273.012-1.27,0-2.016-.829-2.1-2.333-.06-1.1-.047-2.216-.033-3.4.007-.553.014-1.125.014-1.726-5.115,4.57-9.6,6.945-14.53,7.7A16.228,16.228,0,0,1,6.445,31.634Zm8.084-12.868A11.658,11.658,0,0,0,6.314,21.7a6.609,6.609,0,0,0-2.227,3.668,1.831,1.831,0,0,0,.154,1.451,1.925,1.925,0,0,0,1.384.637,8.277,8.277,0,0,0,1.153.08,11.162,11.162,0,0,0,2.79-.388,22.412,22.412,0,0,0,11.775-7.3,23.866,23.866,0,0,0-5.87-1.051C15.153,18.775,14.836,18.767,14.528,18.767Z" transform="translate(25.629 78.41)" fill="#0b0c0b"/>
      <path id="Path_43" data-name="Path 43" d="M4.171,31.492a46.7,46.7,0,0,0,7.59-6.13,119.524,119.524,0,0,0,8.388-9.4c.874-1.068,1.85-1.283,2.8-.684a2.085,2.085,0,0,1,.315,3.231A91.508,91.508,0,0,1,12.95,29.791c-.434.4-.865.806-1.318,1.227a27.529,27.529,0,0,0,13.438,8.641c1.036.293,1.965.692,2.077,1.95a2.008,2.008,0,0,1-2.714,2.119,27.384,27.384,0,0,1-4.69-1.682A31.761,31.761,0,0,1,9.125,34.32c-.527-.585-.866-.74-1.55-.213-1.043.8-2.609,1.251-3.167,2.278-.528.973-.039,2.5,0,3.777.012.428,0,.858,0,1.286,0,1.629-.527,2.276-1.884,2.307-1.428.033-2.191-.772-2.238-2.349-.083-2.829-.2-5.657-.25-8.486A207.553,207.553,0,0,1,1.8,1.887C1.986.534,2.614-.076,3.725.01a2.31,2.31,0,0,1,2,2.267c-.235,2.773-.546,5.538-.836,8.3a166.13,166.13,0,0,0-.715,20.91" transform="translate(56.149 66.201)" fill="#0b0c0b"/>
      <path id="Path_44" data-name="Path 44" d="M11.536,33.562c-3.459,0-6.413-1.82-8.543-5.263A20.907,20.907,0,0,1,.161,18.934C-.33,13.6.287,9.338,2.1,5.509A10.807,10.807,0,0,1,4.454,2.017,6.909,6.909,0,0,1,9.121,0a6.66,6.66,0,0,1,2.192.39c2.126.741,3.312,2.426,3.627,5.153a15.12,15.12,0,0,1-1.95,9.752c-1.5,2.5-3.168,3.613-5.4,3.613a10.485,10.485,0,0,1-3.345-.645,17.576,17.576,0,0,0,2.321,7.93c1.461,2.336,2.895,3.333,4.794,3.333a9.206,9.206,0,0,0,3.062-.639c4.413-1.568,6.461-5.493,7.753-8.737a15.58,15.58,0,0,0,.668-2.451c.045-.209.092-.426.14-.638.25-1.1.873-1.682,1.8-1.682a2.594,2.594,0,0,1,.377.029,2.38,2.38,0,0,1,1.554.98,1.631,1.631,0,0,1,.3,1.272,25.471,25.471,0,0,1-3.575,9.056,15.666,15.666,0,0,1-7.607,5.993A12.02,12.02,0,0,1,11.536,33.562ZM9.258,4.1a2.882,2.882,0,0,0-1.671.77A6.226,6.226,0,0,0,5.505,7.572a17.383,17.383,0,0,0-1.07,4.057A3.191,3.191,0,0,0,6.742,14.8a2.015,2.015,0,0,0,.637.111,2.429,2.429,0,0,0,1.895-1.356A10.853,10.853,0,0,0,10.99,7.506c0-.072-.008-.162-.011-.266A7.317,7.317,0,0,0,10.9,6.218c-.011-.066-.022-.132-.033-.2-.123-.746-.25-1.517-1.057-1.822A1.552,1.552,0,0,0,9.258,4.1Z" transform="translate(82.097 76.534)" fill="#0b0c0b"/>
      <path id="Path_45" data-name="Path 45" d="M0,12.375a36.208,36.208,0,0,0,2.205-4.9,6.66,6.66,0,0,1,2.277-3.2A9.071,9.071,0,0,0,7.792,0c-.044,1.892.662,3.661.9,5.514a4.922,4.922,0,0,1-2.573,5.319A14.678,14.678,0,0,1,0,12.375" transform="translate(103.185 39.624)" fill="#e6d0d8"/>
      <path id="Path_46" data-name="Path 46" d="M0,3.162c2.921-.314,5.882-.15,8.78-.757A10.757,10.757,0,0,0,13.566.466,2.84,2.84,0,0,1,16.127.157c.546.1,1.092.135,1.635.215a17.017,17.017,0,0,1-7.756,3.942A15.742,15.742,0,0,1,0,3.162" transform="translate(71.36 58.139)" fill="#e6d0d8"/>
      <path id="Path_47" data-name="Path 47" d="M.116,0A16.876,16.876,0,0,0,2.944,2.2C6.87,4.1,9.458,7.41,12.148,10.631c-.642.184-1.046-.287-1.5-.572C9.124,9.11,7.641,8.1,6.1,7.176a14.9,14.9,0,0,1-5.535-5.4C.267,1.243-.235.715.116,0" transform="translate(30.72 40.856)" fill="#e6d0d8"/>
      <path id="Path_48" data-name="Path 48" d="M3.017,13.5c-.4-2.472-.836-4.938-1.2-7.416A33.985,33.985,0,0,0,0,0c1.062.314,1.429,1.292,1.9,2.1A12.971,12.971,0,0,1,3.017,13.5" transform="translate(108.459 20.366)" fill="#e6d0d8"/>
      <path id="Path_49" data-name="Path 49" d="M0,0A49.055,49.055,0,0,0,8.226,4.953C5.558,4.793,3.564,3.2,1.534,1.732.919,1.284,0,1.023,0,0" transform="translate(44.878 53.248)" fill="#e6d0d8"/>
      <path id="Path_50" data-name="Path 50" d="M0,0A6.333,6.333,0,0,1,1.554,1.364,1.376,1.376,0,0,1,0,0" transform="translate(43.084 51.686)" fill="#e6d0d8"/>
      <path id="Path_51" data-name="Path 51" d="M0,0,.379.351C.063.441.026.229,0,0" transform="translate(30.428 40.469)" fill="#e6d0d8"/>
      <path id="Path_52" data-name="Path 52" d="M.2.343A.274.274,0,0,1,.007,0C.069.113.132.227.2.343" transform="translate(108.204 19.856)" fill="#e6d0d8"/>
      <path id="Path_53" data-name="Path 53" d="M44.446,53.324a12.882,12.882,0,0,1-3.1-.413c-1.523-.381-3.314-.848-5.046-1.425a24.558,24.558,0,0,0-7.758-1.3c-.314,0-.633.007-.947.019-.171.007-.343.01-.511.01a9.619,9.619,0,0,1-6.959-2.771,44.168,44.168,0,0,0-8.943-6.116c-.526-.3-1.069-.608-1.6-.916-.743-.429-1.49-.9-2.281-1.43A16.159,16.159,0,0,1,.867,31.3,16.25,16.25,0,0,1,.719,21.257a19.87,19.87,0,0,1,7.076-11.02A30.709,30.709,0,0,0,13.959,4.26a5.165,5.165,0,0,1,2.506-1.909l.027,0c.214-.012.435-.024.535-.266H17l.032-.02-.007.018h.1c.083,0,.166,0,.246,0s.173.005.259.005a1.888,1.888,0,0,0,.522-.058,29.446,29.446,0,0,1,7.222-.8c.716-.02,1.456-.041,2.181-.077C31.411.959,35.245.563,39.5.1a15.452,15.452,0,0,1,1.68-.1,5.844,5.844,0,0,1,4.7,1.93,6.814,6.814,0,0,0,5.386,2.334c.1,0,.2,0,.3,0,.226-.006.457-.01.689-.01a38.488,38.488,0,0,1,6.174.578,15.736,15.736,0,0,1,1.646.39,9.947,9.947,0,0,0,2.62.473c.161,0,.322-.008.477-.023a1.007,1.007,0,0,0,.733.515c.058.018.115.036.172.056a38.248,38.248,0,0,1,7.223,3.28c.219.133.434.289.642.44a3.377,3.377,0,0,0,1.981.862h.07l-.018-.026.029.026h-.011l.2.3,0,.011c.057.075.115.152.172.229l.257.4c2.362,3.69,4.805,7.505,5.579,12.034A15.813,15.813,0,0,1,79.1,33.562a37.4,37.4,0,0,1-4.541,7.285A34.458,34.458,0,0,1,68.4,46.822a15.2,15.2,0,0,1-3.587,1.961,7.909,7.909,0,0,1-2.943.608,6.6,6.6,0,0,1-2.424-.467,20.56,20.56,0,0,0-2.689-.828,5.154,5.154,0,0,0-1.2-.146,5.6,5.6,0,0,0-3.174,1.072,7.141,7.141,0,0,0-1.468,1.245A8.053,8.053,0,0,1,44.446,53.324Zm-7.3-6.486a12.251,12.251,0,0,0,7.754,2.6,9.2,9.2,0,0,0,6.939-2.585,37.674,37.674,0,0,1-6.739.577,59.308,59.308,0,0,1-7.953-.592ZM21.915,44.163h0a.229.229,0,0,0-.2.114c-.157.23-.047.4.069.577.022.034.044.068.065.1a5.974,5.974,0,0,0,5.084,2.62,6.25,6.25,0,0,0,1.022-.084,9.512,9.512,0,0,0-5.781-3.278c-.032-.005-.066-.014-.1-.023a.647.647,0,0,0-.162-.029Zm52.721-8.1a35.889,35.889,0,0,1-5.531,4.955A23.984,23.984,0,0,1,62.342,44.4a9.709,9.709,0,0,0,1.964.2,10.671,10.671,0,0,0,7.152-2.916A9.372,9.372,0,0,0,74.636,36.065Zm-8.413,3.1a1.11,1.11,0,0,0-.16.013,8.561,8.561,0,0,0-5.522,2.735c.18.033.337.064.479.092h.007c.28.055.5.1.724.124a3.956,3.956,0,0,0,.439.024,4.881,4.881,0,0,0,4.077-2.141l.044-.086c.112-.214.264-.507.172-.66A.284.284,0,0,0,66.224,39.162ZM15.008,34.341c.626,2.521,3.336,4.817,5.686,4.817a3.213,3.213,0,0,0,1.578-.4,27.3,27.3,0,0,1-2.777-1.84A16.571,16.571,0,0,0,15.008,34.341Zm34.671-4.261c-.12.052-.237.1-.356.158l-.211.279c-.209.275-.424.56-.629.845a3.946,3.946,0,0,0-.88,3.221,3.955,3.955,0,0,0,2.246,2.48,7.03,7.03,0,0,0,2.7.745c.08.007.162.01.243.01a2.216,2.216,0,0,0,2.313-1.485c.17-1.064-.319-1.818-1.54-2.371-.211-.1-.4-.173-.589-.238s-.406-.136-.605-.2c-1.514-.486-3.078-.988-2.694-3.444ZM31.491,27.687c-1.113,0-1.776.894-1.819,2.454-.016.562-.085.78-.743.831a1.9,1.9,0,0,0-1.845,2.167,3.819,3.819,0,0,0,1.148,2.712,4.3,4.3,0,0,0,3.019,1.27h.016a7.386,7.386,0,0,0,3.393-.95,3.579,3.579,0,0,0,1.464-5.23,7.7,7.7,0,0,0-2.875-2.674A3.524,3.524,0,0,0,31.491,27.687ZM1.984,24.115a11.653,11.653,0,0,0,2.655,8.469,11.016,11.016,0,0,0,7.267,4.407,21.842,21.842,0,0,1-5.854-5.848,74.386,74.386,0,0,1-4.069-7.028h0Zm64.463,8.629h0l-.379.126a13.94,13.94,0,0,0-5.8,3.019,7.016,7.016,0,0,0,1.746.228c2.426,0,4.247-1.387,4.429-3.373Zm12.307-9.48c-.244,0-.335.206-.424.406-.017.037-.033.075-.05.11a6.932,6.932,0,0,0-.742,3.434c0,.114,0,.229,0,.343,0,.264,0,.536.006.8,0,.044,0,.09,0,.137,0,.254,0,.541.291.638a.415.415,0,0,0,.13.022c.2,0,.33-.166.457-.326.039-.049.076-.1.115-.138a4.8,4.8,0,0,0,.7-4.887c-.023-.044-.044-.092-.066-.143-.084-.195-.17-.4-.408-.4h-.007Zm-9.833-2.877a4.759,4.759,0,0,0-3.451,1.432,4.368,4.368,0,0,0-1.253,3.193,2.259,2.259,0,0,0,1.241,2.08,4.826,4.826,0,0,0,2.412.637,6.742,6.742,0,0,0,2.284-.441c2.011-.72,3.211-2.215,3.057-3.809-.135-1.382-1.609-2.628-3.586-3.031a3.369,3.369,0,0,0-.507-.055l-.08,0Zm-45.9,2.591a.312.312,0,0,0-.259.1c-.125.154-.06.468,0,.746A2.968,2.968,0,0,0,25.8,25.88a.535.535,0,0,1,.262-.044H26.2c.223,0,.47-.023.577-.3.119-.307-.134-.534-.379-.753-.066-.059-.129-.115-.183-.172a6.644,6.644,0,0,0-2.747-1.537,1.473,1.473,0,0,0-.456-.1ZM11.679,18.108a2.61,2.61,0,0,0-2.885,2.719,3.065,3.065,0,0,0,.761,2.179,6.292,6.292,0,0,0,5.034,2.388c.251,0,.51-.013.77-.038,1.861-.178,3.088-1.189,3.284-2.7.2-1.567-.73-2.856-2.55-3.536a15.288,15.288,0,0,0-3.955-.987C11.983,18.116,11.828,18.108,11.679,18.108Zm27.087-.643c-.146,0-.295,0-.443.012a8.593,8.593,0,0,0-3.83.7,2.262,2.262,0,0,0-1.206,1.345,1.779,1.779,0,0,0,.254,1.414,9.484,9.484,0,0,0,4.434,3.917,3.023,3.023,0,0,0,1.165.25,2.348,2.348,0,0,0,1.4-.453c.96-.69,1.983-1.438,2.954-2.236a2.16,2.16,0,0,0,.922-1.609,2.182,2.182,0,0,0-.922-1.629A7.223,7.223,0,0,0,38.767,17.465Zm14.845-8.7a7.97,7.97,0,0,0-2.848.614A1.682,1.682,0,0,0,49.5,11.354c.674,2.906,2.6,4.641,5.16,4.641a6.358,6.358,0,0,0,2.717-.646,2.5,2.5,0,0,0,1.385-2.158,3.773,3.773,0,0,0-.843-3.038,5.189,5.189,0,0,0-3.964-1.379h-.005C53.841,8.765,53.727,8.761,53.612,8.761ZM25.979,6.528a3.188,3.188,0,0,0-2.559.993,3.038,3.038,0,0,0-.491,2.577c.357,1.875.875,3.427,3.6,3.427.163,0,.335-.006.511-.017h.6c1.989-.007,3-.776,3.289-2.494a3.373,3.373,0,0,0-2.352-4.023,8.239,8.239,0,0,0-2.515-.463h-.075ZM15.4,7.162a3.416,3.416,0,0,0-2.64,1.781c-.208.371-.264.628-.171.786.078.134.265.2.571.2.066,0,.139,0,.216-.009a3.528,3.528,0,0,0,2.745-1.833c.2-.273.273-.461.225-.592-.059-.162-.3-.22-.581-.288A1.547,1.547,0,0,0,15.4,7.162Z" transform="translate(28.06 2.82)" fill="#e6d0d8"/>
      <path id="Path_54" data-name="Path 54" d="M6.57,11.016A23.768,23.768,0,0,1,0,8.253a58.924,58.924,0,0,0,7.058.4c2.958.039,5.668,1.173,8.457,1.961,2.6.734,5.2,1.4,7.955.946a8.514,8.514,0,0,0,4.478-2.042c.7-.633,1.44-1.226,2.1-1.9a3.879,3.879,0,0,1,4.358-.959,26.29,26.29,0,0,0,3.178.98c2.767.552,5.226-.4,7.564-1.759A28.338,28.338,0,0,0,51.374.745C51.647.456,51.8-.021,52.5,0A12.815,12.815,0,0,1,49.48,5.706,14.327,14.327,0,0,1,36.55,9.784a4.475,4.475,0,0,0-3.765.782c-1.906,1.527-4.269,1.723-6.551,1.913a56.989,56.989,0,0,1-11.688.036A11.753,11.753,0,0,0,10.2,10.4a4.134,4.134,0,0,0-3.635.621" transform="translate(50.888 46.429)" fill="#e6d0d8"/>
      <path id="Path_55" data-name="Path 55" d="M0,4.876A42.158,42.158,0,0,0,2.8,0,4.626,4.626,0,0,1,0,4.876" transform="translate(106.27 37.189)" fill="#e6d0d8"/>
      <path id="Path_56" data-name="Path 56" d="M.779.816C.389.669-.1.613.019,0L0,.039c.3.224.763.293.756.8L.779.816" transform="translate(46.142 51.208)" fill="#0b0c0b"/>
      <path id="Path_57" data-name="Path 57" d="M.807.516C.329.739.192.356,0,.066L.074,0A1.071,1.071,0,0,1,.787.556l.02-.04" transform="translate(45.354 50.69)" fill="#0b0c0b"/>
      <path id="Path_58" data-name="Path 58" d="M.571,0C.468.272.232.275,0,.288.122.052.349.029.571,0" transform="translate(44.524 4.885)" fill="#fefefe"/>
      <path id="Path_59" data-name="Path 59" d="M0,.124c.294-.317.529.05.8.068L.813.186A1.075,1.075,0,0,1,.02.12Z" transform="translate(47.013 52.264)" fill="#0b0c0b"/>
      <path id="Path_60" data-name="Path 60" d="M.108,0,.129.246,0,.192.124,0,.108,0" transform="translate(47.696 52.454)" fill="#0b0c0b"/>
      <path id="Path_61" data-name="Path 61" d="M.141.364.024,0,0,.02C.092.059.215.072.268.141.4.308.173.289.122.369l.019,0" transform="translate(46.893 52.026)" fill="#0b0c0b"/>
      <path id="Path_62" data-name="Path 62" d="M.168.232C.114.155.058.079,0,0,.058.079.114.155.168.232" transform="translate(102.249 13.952)" fill="#fefefe"/>
      <path id="Path_63" data-name="Path 63" d="M.218.331,0,0,.218.331" transform="translate(102.027 13.617)" fill="#fefefe"/>
      <path id="Path_64" data-name="Path 64" d="M.244.254,0,.08C.026.053.075,0,.077,0c.084.059.161.125.24.189L.244.254" transform="translate(45.112 50.498)" fill="#0b0c0b"/>
      <path id="Path_65" data-name="Path 65" d="M4.182,9.433H4.166A4.3,4.3,0,0,1,1.15,8.166,3.822,3.822,0,0,1,0,5.451,1.9,1.9,0,0,1,1.845,3.285c.659-.052.727-.269.743-.832C2.632.894,3.3,0,4.408,0A3.524,3.524,0,0,1,6.165.58,7.721,7.721,0,0,1,9.041,3.254,3.82,3.82,0,0,1,9.507,6.22a3.784,3.784,0,0,1-1.93,2.264A7.391,7.391,0,0,1,4.182,9.433Zm.577-7.206c-.029,0-.059,0-.089,0A4.537,4.537,0,0,1,4.279,4.4a2.093,2.093,0,0,1-2,.944.237.237,0,0,0-.217.094c-.094.149.024.428.063.51A2.1,2.1,0,0,0,3.9,7.393c.075.006.154.009.234.009,1.356,0,3.077-.8,3.347-1.549.35-.97-.267-2.08-1.739-3.124-.062-.044-.12-.091-.182-.142A1.212,1.212,0,0,0,4.759,2.226Z" transform="translate(55.143 30.507)" fill="#0b0c0b"/>
      <path id="Path_66" data-name="Path 66" d="M5.906,7.637a3.02,3.02,0,0,1-1.163-.249A9.49,9.49,0,0,1,.309,3.471,1.783,1.783,0,0,1,.055,2.056,2.263,2.263,0,0,1,1.259.711a8.594,8.594,0,0,1,3.829-.7C5.236,0,5.385,0,5.531,0a7.222,7.222,0,0,1,4.725,1.712,2.179,2.179,0,0,1,.924,1.627,2.16,2.16,0,0,1-.921,1.611c-.978.8-2,1.547-2.955,2.234A2.348,2.348,0,0,1,5.906,7.637Zm-.86-5.7h0a8.057,8.057,0,0,0-2.175.319c-.284.081-.543.168-.6.347-.039.134.043.314.251.549a9.991,9.991,0,0,0,2.52,2.155,1.813,1.813,0,0,0,.833.28.852.852,0,0,0,.673-.337,6.664,6.664,0,0,1,1.38-1.141,10.469,10.469,0,0,0,1.1-.831A6.646,6.646,0,0,0,5.046,1.94Z" transform="translate(61.293 20.286)" fill="#0b0c0b"/>
      <path id="Path_67" data-name="Path 67" d="M5.8,7.286A6.289,6.289,0,0,1,.769,4.9,3.043,3.043,0,0,1,.007,2.718,2.608,2.608,0,0,1,2.89,0c.15,0,.305.008.462.022a15.321,15.321,0,0,1,3.955.987A4.27,4.27,0,0,1,9.348,2.449a2.86,2.86,0,0,1,.507,2.1C9.661,6.06,8.433,7.07,6.571,7.249,6.312,7.273,6.055,7.286,5.8,7.286ZM2.913,2.035c-.37,0-.647.065-.8.381a1.19,1.19,0,0,0,.215,1.2A4.819,4.819,0,0,0,5.994,5.275a2.9,2.9,0,0,0,.946-.142c.577-.2.889-.518.925-.951a1.143,1.143,0,0,0-.806-1.059A15.523,15.523,0,0,0,3.378,2.046c-.075,0-.149,0-.222-.005S2.992,2.035,2.913,2.035Z" transform="translate(36.846 20.93)" fill="#0b0c0b"/>
      <path id="Path_68" data-name="Path 68" d="M5.206,7.223a4.841,4.841,0,0,1-3.215-1.18A6.416,6.416,0,0,1,.047,2.582,1.681,1.681,0,0,1,1.309.6,7.992,7.992,0,0,1,4.161-.011c.114,0,.227,0,.335.011A5.2,5.2,0,0,1,8.466,1.381a3.771,3.771,0,0,1,.843,3.036A2.5,2.5,0,0,1,7.924,6.576,6.357,6.357,0,0,1,5.206,7.223Zm-.567-5.2a10.217,10.217,0,0,0-2.064.283l-.029.006c-.214.045-.314.091-.357.165s-.023.2.043.406A3.312,3.312,0,0,0,5.4,5.192a3.358,3.358,0,0,0,1.17-.211A1,1,0,0,0,7.3,3.929a1.646,1.646,0,0,0-.416-1.262,2.994,2.994,0,0,0-2.2-.64Z" transform="translate(77.514 11.593)" fill="#0b0c0b"/>
      <path id="Path_69" data-name="Path 69" d="M3.657,7.342a4.84,4.84,0,0,1-2.414-.637A2.26,2.26,0,0,1,0,4.625,4.368,4.368,0,0,1,1.255,1.432,4.756,4.756,0,0,1,4.7,0h.12l.08,0a3.37,3.37,0,0,1,.507.055C7.388.464,8.863,1.711,9,3.092,9.15,4.686,7.95,6.181,5.939,6.9A6.736,6.736,0,0,1,3.657,7.342Zm.731-5.287A2.088,2.088,0,0,0,2.354,3.417c-.029.066-.062.134-.1.206-.2.413-.428.88-.078,1.22a1.793,1.793,0,0,0,1.316.5,4.111,4.111,0,0,0,1.085-.172,1.011,1.011,0,0,1,.161-.026.72.72,0,0,0,.213-.044c.106-.047.216-.092.323-.136.758-.314,1.541-.638,1.69-1.585A.557.557,0,0,0,6.8,2.942a3.38,3.38,0,0,0-2.244-.884h-.03Q4.456,2.054,4.388,2.054Z" transform="translate(92.275 23.208)" fill="#0b0c0b"/>
      <path id="Path_70" data-name="Path 70" d="M3.677,7C.955,7,.439,5.444.083,3.57A3.036,3.036,0,0,1,.572.994,3.187,3.187,0,0,1,3.132,0h.075A8.232,8.232,0,0,1,5.72.462,3.373,3.373,0,0,1,8.072,4.487C7.787,6.2,6.773,6.973,4.784,6.979h-.6C4.011,6.99,3.839,7,3.677,7ZM3.038,2.036a1.055,1.055,0,0,0-.861.277A1.279,1.279,0,0,0,2.068,3.38c.211,1.1.74,1.637,1.619,1.637a2.833,2.833,0,0,0,.482-.045c.132,0,.264.013.391.022.163.011.317.022.464.022.579,0,.978-.175,1.042-1.031.077-1.061-.39-1.579-1.561-1.734-.176-.023-.354-.059-.526-.093a5.01,5.01,0,0,0-.852-.12Z" transform="translate(50.907 9.35)" fill="#0b0c0b"/>
      <path id="Path_71" data-name="Path 71" d="M2.153,0c-.434,2.779,1.593,3.044,3.3,3.642.2.07.4.151.589.238a2.131,2.131,0,0,1,1.539,2.37A2.3,2.3,0,0,1,5.024,7.728a6.989,6.989,0,0,1-2.7-.744C-.19,5.673-.692,3.59.959,1.284,1.232.9,1.518.535,1.8.161L2.153,0" transform="translate(75.585 32.903)" fill="#0b0c0b"/>
      <path id="Path_72" data-name="Path 72" d="M10,12.872C4.345,12.294-.7,5.627.078,0a75.014,75.014,0,0,0,4.07,7.024A22,22,0,0,0,10,12.872" transform="translate(29.962 26.938)" fill="#0b0c0b"/>
      <path id="Path_73" data-name="Path 73" d="M0,8.337C5.093,6.734,8.844,3.7,12.3,0,11.955,4.016,6.5,9.685,0,8.337" transform="translate(90.402 38.885)" fill="#0b0c0b"/>
      <path id="Path_74" data-name="Path 74" d="M0,0a46.748,46.748,0,0,0,14.7.016C11.654,3.437,4.2,3.5,0,0" transform="translate(65.202 49.659)" fill="#0b0c0b"/>
      <path id="Path_75" data-name="Path 75" d="M7.262,4.423C4.637,5.88.765,3.072,0,0c2.772.921,4.71,3.013,7.259,4.42" transform="translate(43.068 37.162)" fill="#0b0c0b"/>
      <path id="Path_76" data-name="Path 76" d="M6.319,3.328A6.1,6.1,0,0,1,.216.791C.088.573-.105.385.082.11.213-.083.385.023.541.048A9.465,9.465,0,0,1,6.319,3.328" transform="translate(49.698 46.985)" fill="#0b0c0b"/>
      <path id="Path_77" data-name="Path 77" d="M0,3.143C1.826,1.371,4,.724,6.176,0,5.945,2.513,3.167,3.96,0,3.143" transform="translate(88.331 35.565)" fill="#0b0c0b"/>
      <path id="Path_78" data-name="Path 78" d="M0,2.751A8.464,8.464,0,0,1,5.522.017c.755-.112.365.518.2.834A4.913,4.913,0,0,1,1.209,2.967C.87,2.929.538,2.849,0,2.751" transform="translate(88.6 41.983)" fill="#0b0c0b"/>
      <path id="Path_79" data-name="Path 79" d="M0,3.95A6.939,6.939,0,0,1,.744.512C.856.289.931-.008,1.226,0S1.589.328,1.7.54A4.8,4.8,0,0,1,1,5.43c-.193.208-.358.556-.7.443S.018,5.386.007,5.1c-.013-.382,0-.766,0-1.148" transform="translate(105.591 26.085)" fill="#0b0c0b"/>
      <path id="Path_80" data-name="Path 80" d="M3.108,2.9A2.971,2.971,0,0,1,.073.845C-.04.31-.134-.223.788.1A6.548,6.548,0,0,1,3.53,1.637c.254.264.712.533.561.923-.181.469-.751.209-.983.341" transform="translate(50.747 25.8)" fill="#0b0c0b"/>
      <path id="Path_81" data-name="Path 81" d="M.829,2.755c-.772.059-1.073-.164-.616-.974A3.163,3.163,0,0,1,3.218.045c.5.122.856.206.359.88A3.528,3.528,0,0,1,.829,2.755" transform="translate(40.602 9.982)" fill="#0b0c0b"/>
      <path id="Path_82" data-name="Path 82" d="M2.646.008c.513-.042.769.284,1.069.5C5.2,1.561,5.8,2.655,5.452,3.626c-.3.822-2.24,1.64-3.577,1.539A2.1,2.1,0,0,1,.1,3.719c-.1-.2-.216-.6.154-.6C2.4,3.115,2.645,1.638,2.646.008" transform="translate(57.166 32.733)" fill="#e6d0d8"/>
      <path id="Path_83" data-name="Path 83" d="M6.767,1.336A24.816,24.816,0,0,0,4.289,3.309c-.448.528-1,.347-1.5.057A10.162,10.162,0,0,1,.266,1.212C-.257.622.083.465.609.316a6.8,6.8,0,0,1,6.157,1.02" transform="translate(63.559 22.226)" fill="#e6d0d8"/>
      <path id="Path_84" data-name="Path 84" d="M1.35.007A15.462,15.462,0,0,1,5.03,1.084a1.134,1.134,0,0,1,.805,1.06c-.041.489-.434.783-.924.951A4.74,4.74,0,0,1,.3,1.581,1.2,1.2,0,0,1,.088.377C.311-.09.805,0,1.35.007" transform="translate(38.875 22.965)" fill="#e6d0d8"/>
      <path id="Path_85" data-name="Path 85" d="M2.521,0C4.339.007,5.175.62,5.134,1.9A1.007,1.007,0,0,1,4.4,2.951,3.327,3.327,0,0,1,.064.861C-.06.478-.047.379.379.291A10.1,10.1,0,0,1,2.521,0" transform="translate(79.68 13.62)" fill="#e6d0d8"/>
      <path id="Path_86" data-name="Path 86" d="M2.53.006c1.075-.013,2.538.71,2.442,1.324C4.8,2.411,3.806,2.678,2.958,3.049a2.81,2.81,0,0,1-.375.07,2.354,2.354,0,0,1-2.4-.33c-.413-.4-.017-.989.176-1.424A2.1,2.1,0,0,1,2.53.006" transform="translate(94.272 25.262)" fill="#e6d0d8"/>
      <path id="Path_87" data-name="Path 87" d="M2.152,2.935C1.04,3.128.314,2.716.052,1.342-.147.3.2-.025,1.11,0A13.278,13.278,0,0,1,2.487.212c1.019.135,1.647.542,1.56,1.736-.1,1.293-.968,1.017-1.9.988" transform="translate(52.921 11.386)" fill="#e6d0d8"/>
    </g>
  </g>
</svg>
